# xmcd
#
# Track frame offsets:
#	150
#	14152
#	34747
#	55840
#	76820
#	90135
#	104932
#	151220
#	166817
#	184772
#	208672
#	229277
#
# Disc length: 3302 seconds
#
# Revision: 0
# Processed by: cddbd v1.5.2PL0 Copyright (c) Steve Scherf et al.
# Submitted via: audiograbber 1.83.01
#
DISCID=940ce40c
DTITLE=Bryan Lee - Six String Therapy
DYEAR=2002
DGENRE=Blues
TTITLE0=You Better Believe It
TTITLE1=Go On Fool
TTITLE2=Just Like A Fish
TTITLE3=Now I Got A Woman
TTITLE4=Bumpity Bump
TTITLE5=You May
TTITLE6=Six String Therapy
TTITLE7=Beautician Blues
TTITLE8=Three Handed Woman
TTITLE9=The Little Prince
TTITLE10=Shipyard Blues
TTITLE11=Gee Baby, Ain't I Good To You
EXTD=Bryan Lee - vocals, guitar\nDuke Robillard - guitar\nBruce Katz - piano, o
EXTD=rgan\nDoug James - tenor saxophone, baritone saxophone\nMark Teixeira - dr
EXTD=ums, percussion\nSax Gordon - tenor saxophone\nJesse Williams - acoustic &
EXTD=electric basses
EXTT0=
EXTT1=
EXTT2=
EXTT3=
EXTT4=
EXTT5=
EXTT6=
EXTT7=
EXTT8=
EXTT9=
EXTT10=
EXTT11=
PLAYORDER=
